<svg xmlns="http://www.w3.org/2000/svg" xmlns:xlink="http://www.w3.org/1999/xlink" fill="none" version="1.1" width="80" height="80" viewBox="0 0 80 80"><defs><clipPath id="master_svg0_121_25201"><rect x="0" y="0" width="80" height="80" rx="0"/></clipPath><clipPath id="master_svg1_121_25203"><rect x="3.9169921875" y="10.400390625" width="72" height="57.34811019897461" rx="0"/></clipPath><clipPath id="master_svg2_121_25205"><rect x="3.9169921875" y="10.400390625" width="72" height="57.34811019897461" rx="0"/></clipPath></defs><g clip-path="url(#master_svg0_121_25201)"><g clip-path="url(#master_svg1_121_25203)"><g><g clip-path="url(#master_svg2_121_25205)"><g><path d="M73.9409921875,49.842290625C72.4564921875,51.385890625,70.3716921875,51.560090625,68.8443921875,51.420690625C64.1301921875,60.304490625,54.0059921875,66.82449062500001,41.9009921875,67.657890625C29.3191921875,68.523290625,18.0129921875,63.011190625,12.3102521875,54.288190625C10.830972187499999,54.604290625,8.8291421875,54.665990625,7.2051421875,53.387690625C4.2439171875,51.056290625,2.8745221875,41.357890624999996,4.8334621875,36.764690625C5.2113321875,35.874890625,5.7526321875,35.210390625,6.3743521874999995,34.717290625000004C6.4198921875,31.782890625,6.572662187500001,23.376190625,6.7843421875,21.915690625C6.957642187499999,20.731190625,7.8634021875,19.607440625000002,9.501672187499999,18.544450625L11.2757521875,30.081190625C14.6871921875,23.689790625,21.4323921875,18.528340625,29.1690921875,15.837790625C29.4423921875,14.548810625,29.9408921875,13.093640624999999,30.8465921875,12.367390625C32.6795921875,10.898857625,41.7642921875,9.524062625,46.1672921875,11.097127625C48.2039921875,11.826040625000001,49.0510921875,13.313380625,49.3750921875,14.701540625C56.8009921875,16.392500625,62.6216921875,20.369420625,66.7324921875,25.771990625L66.8822921875,15.639470625000001C68.6525921875,16.468420625,69.7042921875,17.457290625,70.0368921875,18.606050625C70.4467921875,20.023690625,71.7517921875,28.331190625,72.2021921875,31.230790625C72.8852921875,31.635490625,73.5098921875,32.219690625,74.0080921875,33.047690625C76.5779921875,37.330090625,76.5541921875,47.124890625,73.9409921875,49.842290625ZM36.6917921875,58.185390625C38.9112921875,57.080690625,41.2268921875,56.096990625,45.0095921875,55.751390625C47.0733921875,55.563290625,48.7370921875,55.930890625,50.3794921875,56.293590625C52.1492921875,56.684190625,53.8948921875,57.069890625,56.0899921875,56.748990625C61.0795921875,55.214490625,68.7965921875,51.442490625,66.83419218750001,38.690090624999996C64.87219218749999,25.934990624999998,52.3904921875,20.959990625,39.9263921875,22.106790625000002C27.4649921875,23.253590625,16.3089921875,29.330390625,15.2912921875,43.198590625C14.2736921875,57.066790625,24.0787921875,58.921590625,26.3639921875,59.096190625C28.6516921875,59.264990625,33.2651921875,59.357690625,36.6917921875,58.185390625ZM48.9132921875,42.925490625C48.4496921875,42.555690625,48.1601921875,42.006390625,48.1146921875,41.414090625C48.0691921875,40.821890625,48.2727921875,40.237590624999996,48.6747921875,39.798190625000004L52.4102921875,35.732790625C53.2117921875,34.861890625,54.5676921875,34.805590625,55.4388921875,35.604190625C56.3095921875,36.405490625,56.3684921875,37.761490625,55.5675921875,38.632490625L53.3858921875,41.004090625L55.7335921875,42.879990625C56.6578921875,43.619590625,56.8108921875,44.967590625,56.0710921875,45.892090625C55.6502921875,46.428090625,55.0261921875,46.704090625,54.3961921875,46.704090625C53.9272921875,46.704090625,53.4556921875,46.551390625,53.0587921875,46.235190625L48.9132921875,42.925490625ZM28.8766921875,38.442690625C28.7936921875,37.260890625,29.6806921875,36.234490625,30.8624921875,36.151490625C32.044292187500005,36.065690625,33.067992187499996,36.955390625,33.1537921875,38.137190625L33.6896921875,45.640790625C33.7727921875,46.822590625,32.8857921875,47.848990625,31.7039921875,47.932090625C31.6530921875,47.934690625,31.5994921875,47.937390625,31.5484921875,47.937390625C30.4336921875,47.937390625,29.4930921875,47.074490625,29.4126921875,45.946290625L28.8766921875,38.442690625Z" fill="#000000" fill-opacity="1"/></g></g></g></g></g></svg>