<svg xmlns="http://www.w3.org/2000/svg" xmlns:xlink="http://www.w3.org/1999/xlink" fill="none" version="1.1" width="40" height="40" viewBox="0 0 40 40"><defs><clipPath id="master_svg0_121_25177"><rect x="0" y="0" width="40" height="40" rx="0"/></clipPath><clipPath id="master_svg1_121_25179"><rect x="1.95849609375" y="5.2001953125" width="36" height="28.674055099487305" rx="0"/></clipPath><clipPath id="master_svg2_121_25181"><rect x="1.95849609375" y="5.2001953125" width="36" height="28.674055099487305" rx="0"/></clipPath></defs><g clip-path="url(#master_svg0_121_25177)"><g clip-path="url(#master_svg1_121_25179)"><g><g clip-path="url(#master_svg2_121_25181)"><g><path d="M36.97049609375,24.9211953125C36.22819609375,25.6929953125,35.18579609375,25.7799953125,34.42219609375,25.7103953125C32.06509609375,30.1521953125,27.00299609375,33.4122953125,20.95049609375,33.8289953125C14.65959609375,34.2615953125,9.00648609375,31.5055953125,6.15512609375,27.1440953125C5.415486093749999,27.3021953125,4.41457609375,27.3329953125,3.6025760937499998,26.6938953125C2.12195909375,25.5280953125,1.43726109375,20.6789953125,2.41673109375,18.3822953125C2.6056640937499997,17.937495312499998,2.87631609375,17.6051953125,3.1871760937499998,17.3585953125C3.20994609375,15.8913953125,3.28633609375,11.6880953125,3.39217609375,10.9578353125C3.47881609375,10.3655853125,3.9316960937500003,9.8037153125,4.750836093749999,9.2722253125L5.63787609375,15.0405753125C7.34359609375,11.844875312500001,10.71617609375,9.264165312500001,14.58449609375,7.9188953125C14.72119609375,7.2744053125,14.97039609375,6.5468253125,15.42329609375,6.1836933125C16.33979609375,5.4494283125,20.88209609375,4.7620313125,23.08359609375,5.5485633125C24.10199609375,5.9130183125,24.52549609375,6.6566853125000005,24.68749609375,7.3507653125C28.40049609375,8.1962553125,31.31089609375,10.1847153125,33.36619609375,12.885975312500001L33.44119609375,7.819735312500001C34.32629609375,8.2342053125,34.85209609375,8.7286453125,35.01839609375,9.3030253125C35.22339609375,10.0118453125,35.87589609375,14.1656153125,36.10109609375,15.6153953125C36.44269609375,15.8176953125,36.75499609375,16.109795312499998,37.00399609375,16.523895312500002C38.28899609375,18.6650953125,38.27709609375,23.5624953125,36.97049609375,24.9211953125ZM18.34589609375,29.0926953125C19.45569609375,28.5403953125,20.61349609375,28.0484953125,22.50479609375,27.8756953125C23.53669609375,27.7816953125,24.36849609375,27.9654953125,25.18969609375,28.1467953125C26.07469609375,28.3420953125,26.94749609375,28.5348953125,28.04499609375,28.3744953125C30.53979609375,27.6071953125,34.39829609375,25.7212953125,33.417096093750004,19.3450953125C32.436096093749995,12.9675053125,26.19529609375,10.4799953125,19.96319609375,11.0533853125C13.73249609375,11.6268053125,8.154476093749999,14.6652053125,7.64566609375,21.5992953125C7.13686609375,28.5333953125,12.03939609375,29.4607953125,13.18199609375,29.5480953125C14.32589609375,29.6324953125,16.63259609375,29.6787953125,18.34589609375,29.0926953125ZM24.45659609375,21.4627953125C24.22479609375,21.2778953125,24.08009609375,21.0031953125,24.05729609375,20.7070953125C24.03459609375,20.4108953125,24.13639609375,20.118795312499998,24.33739609375,19.899095312500002L26.20519609375,17.8663953125C26.60589609375,17.430995312500002,27.28379609375,17.4027953125,27.71939609375,17.8020953125C28.15479609375,18.202695312499998,28.18429609375,18.880695312500002,27.78379609375,19.3161953125L26.69299609375,20.5019953125L27.86679609375,21.4399953125C28.32899609375,21.8097953125,28.40539609375,22.4837953125,28.03549609375,22.9460953125C27.82519609375,23.2140953125,27.51309609375,23.3520953125,27.19809609375,23.3520953125C26.96359609375,23.3520953125,26.72779609375,23.2756953125,26.52939609375,23.1175953125L24.45659609375,21.4627953125ZM14.43839609375,19.2213953125C14.39679609375,18.630495312500003,14.84029609375,18.117295312499998,15.43129609375,18.075695312500002C16.02209609375,18.0327953125,16.533996093749998,18.4776953125,16.57689609375,19.0685953125L16.844896093750002,22.8203953125C16.88639609375,23.4112953125,16.44289609375,23.9244953125,15.85199609375,23.9659953125C15.82649609375,23.9673953125,15.79969609375,23.9686953125,15.77429609375,23.9686953125C15.21689609375,23.9686953125,14.74659609375,23.5371953125,14.70629609375,22.9730953125L14.43839609375,19.2213953125Z" fill="#FFFFFF" fill-opacity="1"/></g></g></g></g></g></svg>